<svg width="18" height="18" viewBox="0 0 18 18" fill="none" xmlns="http://www.w3.org/2000/svg">
<rect width="18" height="18" fill="#E5E5E5"/>
<g id="Home One page- Light" clip-path="url(#clip0_0_1)">
<rect width="1440" height="8063" transform="translate(-1377 -635)" fill="#F0F0F6"/>
<g id="Right Menu">
<g id="Rectangle 25" filter="url(#filter0_d_0_1)">
<rect x="-45" y="-635" width="108" height="1315" fill="#FAFAFA"/>
</g>
<g id="Menu">
<g id="Blog">
<circle id="Ellipse 11" cx="9" cy="9" r="20" fill="#F0F0F6"/>
<g id="Icons/Blog">
<g id="Icons/Blog_2">
<g id="Icons/Blog_3">
<g id="Icons/Blog_4" clip-path="url(#clip1_0_1)">
<path id="Vector" d="M15.75 1.5C4.5 1.5 3 12 2.25 16.5H3.7485C4.248 14.0002 5.49825 12.6255 7.5 12.375C10.5 12 12.75 9.375 13.5 7.125L12.375 6.375L13.125 5.625C13.875 4.875 14.628 3.75 15.75 1.5Z" fill="#767676"/>
<rect id="Rectangle 159" x="-38" y="-44" width="100" height="100" fill="#D9D9D9"/>
</g>
</g>
</g>
</g>
</g>
</g>
</g>
</g>
<defs>
<filter id="filter0_d_0_1" x="-51" y="-645" width="128" height="1335" filterUnits="userSpaceOnUse" color-interpolation-filters="sRGB">
<feFlood flood-opacity="0" result="BackgroundImageFix"/>
<feColorMatrix in="SourceAlpha" type="matrix" values="0 0 0 0 0 0 0 0 0 0 0 0 0 0 0 0 0 0 127 0" result="hardAlpha"/>
<feOffset dx="4"/>
<feGaussianBlur stdDeviation="5"/>
<feColorMatrix type="matrix" values="0 0 0 0 0.184314 0 0 0 0 0.478431 0 0 0 0 0.976471 0 0 0 0.1 0"/>
<feBlend mode="normal" in2="BackgroundImageFix" result="effect1_dropShadow_0_1"/>
<feBlend mode="normal" in="SourceGraphic" in2="effect1_dropShadow_0_1" result="shape"/>
</filter>
<clipPath id="clip0_0_1">
<rect width="1440" height="8063" fill="white" transform="translate(-1377 -635)"/>
</clipPath>
<clipPath id="clip1_0_1">
<rect width="18" height="18" fill="white"/>
</clipPath>
</defs>
</svg>
