<svg width="30" height="30" viewBox="0 0 30 30" fill="none" xmlns="http://www.w3.org/2000/svg">
<rect width="30" height="30" fill="#E5E5E5"/>
<g id="Home One page- Light" clip-path="url(#clip0_0_1)">
<rect width="1440" height="8063" transform="translate(-1371 -50)" fill="#F0F0F6"/>
<g id="Right Menu">
<g id="Rectangle 25" filter="url(#filter0_d_0_1)">
<rect x="-39" y="-50" width="108" height="1315" fill="#FAFAFA"/>
</g>
<g id="Contrast">
<g id="Icons/Contrast">
<g id="Icons/Contrast_2">
<g id="Icons/Contrast_3">
<g id="Icons/Contrast_4" clip-path="url(#clip1_0_1)">
<path id="Vector" d="M15.5 27C8.59625 27 3 21.4037 3 14.5C3 7.59625 8.59625 2 15.5 2C22.4037 2 28 7.59625 28 14.5C28 21.4037 22.4037 27 15.5 27ZM7.16125 20.0312C7.98286 21.2605 9.06683 22.2923 10.3351 23.0523C11.6034 23.8123 13.0245 24.2816 14.4959 24.4264C15.9674 24.5712 17.4526 24.3879 18.8448 23.8897C20.2369 23.3915 21.5012 22.5908 22.5466 21.5452C23.5921 20.4997 24.3927 19.2353 24.8908 17.8432C25.3888 16.451 25.572 14.9657 25.4271 13.4943C25.2822 12.0228 24.8127 10.6018 24.0526 9.3336C23.2925 8.06538 22.2606 6.98149 21.0312 6.16C21.5702 8.08278 21.5875 10.1144 21.0814 12.0461C20.5752 13.9778 19.5639 15.7398 18.1513 17.1513C16.74 18.5637 14.9781 19.5749 13.0467 20.081C11.1152 20.5872 9.08385 20.57 7.16125 20.0312Z" fill="#2B2B2B"/>
</g>
</g>
</g>
</g>
</g>
</g>
</g>
<defs>
<filter id="filter0_d_0_1" x="-45" y="-60" width="128" height="1335" filterUnits="userSpaceOnUse" color-interpolation-filters="sRGB">
<feFlood flood-opacity="0" result="BackgroundImageFix"/>
<feColorMatrix in="SourceAlpha" type="matrix" values="0 0 0 0 0 0 0 0 0 0 0 0 0 0 0 0 0 0 127 0" result="hardAlpha"/>
<feOffset dx="4"/>
<feGaussianBlur stdDeviation="5"/>
<feColorMatrix type="matrix" values="0 0 0 0 0.184314 0 0 0 0 0.478431 0 0 0 0 0.976471 0 0 0 0.1 0"/>
<feBlend mode="normal" in2="BackgroundImageFix" result="effect1_dropShadow_0_1"/>
<feBlend mode="normal" in="SourceGraphic" in2="effect1_dropShadow_0_1" result="shape"/>
</filter>
<clipPath id="clip0_0_1">
<rect width="1440" height="8063" fill="white" transform="translate(-1371 -50)"/>
</clipPath>
<clipPath id="clip1_0_1">
<rect width="30" height="30" fill="white"/>
</clipPath>
</defs>
</svg>
