<svg width="16" height="16" viewBox="0 0 16 16" fill="none" xmlns="http://www.w3.org/2000/svg">
<rect width="16" height="16" fill="#E5E5E5"/>
<g id="Home One page- Light" clip-path="url(#clip0_0_1)">
<rect width="1440" height="8063" transform="translate(-1378 -552)" fill="#F0F0F6"/>
<g id="Right Menu">
<g id="Rectangle 25" filter="url(#filter0_d_0_1)">
<rect x="-46" y="-552" width="108" height="1315" fill="#FAFAFA"/>
</g>
<g id="Menu">
<g id="Portfolio">
<circle id="Ellipse 12" cx="8" cy="9" r="20" fill="#F0F0F6"/>
<g id="Icons/Portfolio">
<g id="Icons/Portfolio_2">
<g id="Icons/Portfolio_3">
<g id="Icons/Portfolio_4" clip-path="url(#clip1_0_1)">
<path id="Vector" d="M5.75 9.75V12H10.25V9.75H15.5V15C15.5 15.1989 15.421 15.3897 15.2803 15.5303C15.1397 15.671 14.9489 15.75 14.75 15.75H1.25C1.05109 15.75 0.860322 15.671 0.71967 15.5303C0.579018 15.3897 0.5 15.1989 0.5 15V9.75H5.75ZM7.25 8.25H8.75V10.5H7.25V8.25ZM4.25 3.75V1.5C4.25 1.30109 4.32902 1.11032 4.46967 0.96967C4.61032 0.829018 4.80109 0.75 5 0.75H11C11.1989 0.75 11.3897 0.829018 11.5303 0.96967C11.671 1.11032 11.75 1.30109 11.75 1.5V3.75H14.75C14.9489 3.75 15.1397 3.82902 15.2803 3.96967C15.421 4.11032 15.5 4.30109 15.5 4.5V8.25H10.25V6.75H5.75V8.25H0.5V4.5C0.5 4.30109 0.579018 4.11032 0.71967 3.96967C0.860322 3.82902 1.05109 3.75 1.25 3.75H4.25ZM5.75 2.25V3.75H10.25V2.25H5.75Z" fill="#767676"/>
</g>
</g>
</g>
</g>
</g>
</g>
</g>
</g>
<defs>
<filter id="filter0_d_0_1" x="-52" y="-562" width="128" height="1335" filterUnits="userSpaceOnUse" color-interpolation-filters="sRGB">
<feFlood flood-opacity="0" result="BackgroundImageFix"/>
<feColorMatrix in="SourceAlpha" type="matrix" values="0 0 0 0 0 0 0 0 0 0 0 0 0 0 0 0 0 0 127 0" result="hardAlpha"/>
<feOffset dx="4"/>
<feGaussianBlur stdDeviation="5"/>
<feColorMatrix type="matrix" values="0 0 0 0 0.184314 0 0 0 0 0.478431 0 0 0 0 0.976471 0 0 0 0.1 0"/>
<feBlend mode="normal" in2="BackgroundImageFix" result="effect1_dropShadow_0_1"/>
<feBlend mode="normal" in="SourceGraphic" in2="effect1_dropShadow_0_1" result="shape"/>
</filter>
<clipPath id="clip0_0_1">
<rect width="1440" height="8063" fill="white" transform="translate(-1378 -552)"/>
</clipPath>
<clipPath id="clip1_0_1">
<rect width="18" height="18" fill="white" transform="translate(-1)"/>
</clipPath>
</defs>
</svg>
